<svg xmlns="http://www.w3.org/2000/svg" width="100" height="36" viewBox="0 0 100 36" fill="none"><g clip-path="url(#clip0_649_53)"><path d="M82 0H18C8.05887 0 0 8.05887 0 18C0 27.9411 8.05887 36 18 36H82C91.9411 36 100 27.9411 100 18C100 8.05887 91.9411 0 82 0Z" fill="#EDFF21"></path><path d="M34.0014 25L30.3707 11.9091H32.4482L34.9986 22.0469H35.12L37.7727 11.9091H39.831L42.4837 22.0533H42.6051L45.1491 11.9091H47.233L43.5959 25H41.608L38.853 15.1946H38.7507L35.9957 25H34.0014ZM49.0339 25V11.9091H57.2413V13.6094H51.0091V17.598H56.813V19.2919H51.0091V23.2997H57.318V25H49.0339ZM59.8796 25V11.9091H64.6737C65.6026 11.9091 66.3718 12.0625 66.9812 12.3693C67.5906 12.6719 68.0465 13.0831 68.3491 13.603C68.6516 14.1186 68.8029 14.7003 68.8029 15.348C68.8029 15.8935 68.7028 16.3537 68.5025 16.7287C68.3022 17.0994 68.0337 17.3977 67.6971 17.6236C67.3647 17.8452 66.9982 18.0071 66.5977 18.1094V18.2372C67.0323 18.2585 67.4563 18.3991 67.8697 18.6591C68.2873 18.9148 68.6325 19.2791 68.9052 19.7521C69.1779 20.2251 69.3143 20.8004 69.3143 21.478C69.3143 22.147 69.1566 22.7479 68.8413 23.2805C68.5302 23.8089 68.0487 24.2287 67.3967 24.5398C66.7447 24.8466 65.9116 25 64.8974 25H59.8796ZM61.8548 23.3061H64.7056C65.6516 23.3061 66.3292 23.1229 66.7383 22.7564C67.1474 22.3899 67.3519 21.9318 67.3519 21.3821C67.3519 20.9687 67.2475 20.5895 67.0387 20.2443C66.8299 19.8991 66.5316 19.6243 66.1438 19.4197C65.7603 19.2152 65.3043 19.1129 64.7759 19.1129H61.8548V23.3061ZM61.8548 17.5724H64.5011C64.9442 17.5724 65.3427 17.4872 65.6964 17.3168C66.0543 17.1463 66.3377 16.9077 66.5465 16.6009C66.7596 16.2898 66.8661 15.9233 66.8661 15.5014C66.8661 14.9602 66.6765 14.5064 66.2972 14.1399C65.918 13.7734 65.3363 13.5902 64.5522 13.5902H61.8548V17.5724Z" fill="#334A73"></path></g><defs><clipPath id="clip0_649_53"><rect width="100" height="36" fill="white"></rect></clipPath></defs></svg>